HIERARCHY
ROOT Hips
{
	OFFSET 53.202301 -49.721016 85.987190
	CHANNELS 6 Xposition Yposition Zposition Xrotation Yrotation Zrotation
	JOINT spine
	{
		OFFSET 0.000000 -0.367607 6.392601
		CHANNELS 3 Xrotation Yrotation Zrotation
		JOINT spine1
		{
			OFFSET 0.000000 0.000000 9.176109
			CHANNELS 3 Xrotation Yrotation Zrotation
			JOINT spine2
			{
				OFFSET 0.000000 -0.000004 8.792381
				CHANNELS 3 Xrotation Yrotation Zrotation
				JOINT Neck
				{
					OFFSET 0.000000 -1.076244 22.573700
					CHANNELS 3 Xrotation Yrotation Zrotation
					JOINT Head
					{
						OFFSET 0.000000 0.000000 6.820114
						CHANNELS 3 Xrotation Yrotation Zrotation
						End Site
						{
							OFFSET 0.000000 5.444267 16.508514
						}
					}
				}
				JOINT RightShoulder
				{
					OFFSET -3.702209 0.515507 9.495087
					CHANNELS 3 Xrotation Yrotation Zrotation
					JOINT RightArm
					{
						OFFSET 0.000000 -0.000004 12.453690
						CHANNELS 3 Xrotation Yrotation Zrotation
						JOINT RightArmRoll
						{
							OFFSET 0.000000 0.000000 6.286865
							CHANNELS 3 Xrotation Yrotation Zrotation
							JOINT RightForeArm
							{
								OFFSET 0.000000 -0.000004 18.311401
								CHANNELS 3 Xrotation Yrotation Zrotation
								JOINT RightForeArmRoll
								{
									OFFSET 0.000000 0.000000 7.054825
									CHANNELS 3 Xrotation Yrotation Zrotation
									JOINT RightHand
									{
										OFFSET 0.000000 -0.000004 14.157501
										CHANNELS 3 Xrotation Yrotation Zrotation
										End Site
										{
											OFFSET 0.000000 0.000000 0.100006
										}
									}
								}
							}
						}
					}
				}
				JOINT LeftShoulder
				{
					OFFSET 3.702209 0.515507 9.495087
					CHANNELS 3 Xrotation Yrotation Zrotation
					JOINT LeftArm
					{
						OFFSET 0.000000 -0.000004 12.453690
						CHANNELS 3 Xrotation Yrotation Zrotation
						JOINT LeftArmRoll
						{
							OFFSET 0.000000 0.000000 6.286865
							CHANNELS 3 Xrotation Yrotation Zrotation
							JOINT LeftForeArm
							{
								OFFSET 0.000000 -0.000004 18.311401
								CHANNELS 3 Xrotation Yrotation Zrotation
								JOINT LeftForeArmRoll
								{
									OFFSET 0.000000 0.000000 7.054825
									CHANNELS 3 Xrotation Yrotation Zrotation
									JOINT LeftHand
									{
										OFFSET 0.000000 -0.000004 14.157501
										CHANNELS 3 Xrotation Yrotation Zrotation
										End Site
										{
											OFFSET 0.000000 0.000000 0.100006
										}
									}
								}
							}
						}
					}
				}
			}
		}
	}
	JOINT RightUpLeg
	{
		OFFSET -5.666161 0.871609 -1.039032
		CHANNELS 3 Xrotation Yrotation Zrotation
		JOINT RightUpLegRoll
		{
			OFFSET 0.000000 0.000000 16.600502
			CHANNELS 3 Xrotation Yrotation Zrotation
			JOINT RightLeg
			{
				OFFSET 0.000000 0.000004 -20.557198
				CHANNELS 3 Xrotation Yrotation Zrotation
				JOINT RightLegRoll
				{
					OFFSET 0.000000 -0.000004 20.624397
					CHANNELS 3 Xrotation Yrotation Zrotation
					JOINT RightFoot
					{
						OFFSET 0.000000 -0.000004 17.166405
						CHANNELS 3 Xrotation Yrotation Zrotation
						JOINT RightToeBase
						{
							OFFSET 0.000000 -0.000004 14.350197
							CHANNELS 3 Xrotation Yrotation Zrotation
							End Site
							{
								OFFSET 0.006081 0.801060 6.949707
							}
						}
					}
				}
			}
		}
	}
	JOINT LeftUpLeg
	{
		OFFSET 5.666161 0.871609 -1.039032
		CHANNELS 3 Xrotation Yrotation Zrotation
		JOINT LeftUpLegRoll
		{
			OFFSET 0.000000 0.000000 16.600601
			CHANNELS 3 Xrotation Yrotation Zrotation
			JOINT LeftLeg
			{
				OFFSET 0.000000 -0.000004 20.557098
				CHANNELS 3 Xrotation Yrotation Zrotation
				JOINT LeftLegRoll
				{
					OFFSET 0.000000 -0.000004 20.815086
					CHANNELS 3 Xrotation Yrotation Zrotation
					JOINT LeftFoot
					{
						OFFSET 0.000000 -0.000004 16.975708
						CHANNELS 3 Xrotation Yrotation Zrotation
						JOINT LeftToeBase
						{
							OFFSET 0.000000 0.000000 14.350204
							CHANNELS 3 Xrotation Yrotation Zrotation
							End Site
							{
								OFFSET -0.027260 0.801056 6.949707
							}
						}
					}
				}
			}
		}
	}
}
MOTION
Frames: 6
Frame Time: 0.041667
52.177197 -27.221506 74.511993 26.952152 -1.167819 2.459183 0.357175 0.648293 -0.557172 4.723793 1.281554 -1.126529 6.368898 1.267968 -1.141806 -12.498375 -1.830967 1.849384 -1.992042 -0.195159 2.469101 8.246691 -53.340192 10.669041 130.542400 -50.247670 113.311274 -0.000001 0.000009 -0.000008 43.575961 -13.053491 4.771599 -0.000007 -0.000007 -3.000000 -4.999602 -7.998724 -0.000040 -3.054592 47.862370 2.334182 135.155005 48.149487 -115.522309 -0.000001 -0.000004 -0.000002 40.432285 13.540838 -3.293350 0.000008 -0.000002 2.999987 -4.999643 7.998809 0.000055 -70.958596 -174.852733 -2.928473 -179.999991 0.000005 -0.552995 129.936358 -2.395121 -3.077634 -0.000004 -0.000003 0.634586 70.418916 6.302033 3.632346 25.456957 -7.355616 0.000001 -69.926705 176.992181 3.836018 -0.000005 -0.000005 -0.600946 -51.330569 1.816681 2.171650 -0.000004 -0.000002 -0.916546 72.858304 -6.446563 -3.118700 25.458673 7.355610 -0.002604 
52.174496 -27.331108 74.589790 26.821984 -1.164417 2.452998 0.346534 0.645775 -0.554073 4.702436 1.277686 -1.118810 6.347536 1.264194 -1.134032 -12.454208 -1.838164 1.840956 -1.974315 -0.195512 2.462290 8.266136 -53.362509 10.688067 130.460110 -50.188537 113.413092 -0.000001 0.000009 -0.000009 43.062738 -13.168776 4.761209 -0.000005 -0.000008 -2.999999 -4.999601 -7.998729 -0.000039 -3.032676 47.881351 2.308973 135.135211 48.072743 -115.694512 -0.000001 -0.000004 0.000000 39.953881 13.567513 -3.270173 0.000010 -0.000003 2.999987 -4.999646 7.998809 0.000055 -70.657610 -174.860342 -2.915654 -179.999991 0.000005 -0.554006 130.045040 -2.397964 -3.071046 -0.000005 -0.000003 0.633841 70.480708 6.304013 3.627186 25.456959 -7.355615 0.000002 -69.632255 176.996511 3.840632 -0.000004 -0.000004 -0.603376 -51.224725 1.801311 2.156096 -0.000003 -0.000001 -0.918805 72.919243 -6.451775 -3.100877 25.458676 7.355610 -0.002604 
52.170597 -27.444605 74.660095 26.691314 -1.161199 2.446882 0.335877 0.643248 -0.550839 4.681053 1.273788 -1.110871 6.326154 1.260391 -1.126049 -12.408334 -1.845208 1.832270 -1.956618 -0.195200 2.455081 8.282993 -53.384513 10.704059 130.382041 -50.131700 113.516323 -0.000001 0.000008 -0.000005 42.555613 -13.281911 4.749390 -0.000007 -0.000009 -2.999998 -4.999602 -7.998725 -0.000040 -3.010372 47.901845 2.283478 135.115157 48.000278 -115.865089 -0.000002 -0.000004 -0.000001 39.481529 13.592800 -3.246466 0.000009 -0.000002 2.999992 -4.999643 7.998809 0.000056 -70.355791 -174.867405 -2.902428 -179.999991 0.000005 -0.556000 130.154883 -2.401481 -3.063139 -0.000004 -0.000003 0.633094 70.541709 6.306047 3.621778 25.456959 -7.355615 0.000002 -69.337027 177.000623 3.846368 -0.000005 -0.000004 -0.605805 -51.117897 1.785985 2.140599 -0.000003 -0.000002 -0.921017 72.979560 -6.456916 -3.083270 25.458673 7.355609 -0.002604 
52.161495 -27.543510 74.724991 26.560053 -1.158221 2.440845 0.325229 0.640712 -0.547443 4.659685 1.269810 -1.102700 6.304783 1.256516 -1.117833 -12.360454 -1.851984 1.823412 -1.939163 -0.193976 2.447523 8.297455 -53.406072 10.717264 130.306609 -50.078592 113.619370 -0.000001 0.000009 -0.000007 42.055442 -13.392886 4.736244 -0.000008 -0.000009 -3.000003 -4.999600 -7.998729 -0.000039 -2.987315 47.924244 2.257316 135.093738 47.933749 -116.032387 -0.000001 -0.000005 0.000002 39.015980 13.616883 -3.222260 0.000010 -0.000003 2.999991 -4.999643 7.998807 0.000052 -70.053145 -174.873429 -2.889712 -179.999991 0.000005 -0.556997 130.265819 -2.405689 -3.056965 -0.000004 -0.000003 0.632330 70.601787 6.308135 3.616128 25.456960 -7.355614 0.000001 -69.040502 177.005500 3.850982 -0.000002 -0.000004 -0.608232 -51.009878 1.770685 2.125137 -0.000004 -0.000002 -0.923174 73.039243 -6.461992 -3.065690 25.458676 7.355610 -0.002604 
52.163696 -27.661606 74.793884 26.427996 -1.155549 2.434925 0.314602 0.638168 -0.543856 4.638360 1.265743 -1.094282 6.283467 1.252552 -1.109369 -12.309971 -1.858427 1.814476 -1.922108 -0.191589 2.439650 8.309716 -53.427191 10.727944 130.233088 -50.030005 113.721256 -0.000000 0.000009 -0.000008 41.562572 -13.501843 4.721772 -0.000008 -0.000008 -3.000002 -4.999602 -7.998727 -0.000040 -2.963192 47.949171 2.230134 135.072127 47.872622 -116.197623 -0.000001 -0.000004 -0.000000 38.558327 13.639984 -3.197700 0.000008 -0.000003 2.999991 -4.999644 7.998811 0.000055 -69.749270 -174.878565 -2.876507 -179.999991 0.000005 -0.559005 130.378052 -2.409936 -3.049722 -0.000004 -0.000003 0.631531 70.661060 6.310216 3.610123 25.456957 -7.355615 0.000001 -68.742610 177.010759 3.855979 -0.000002 -0.000004 -0.610656 -50.900568 1.755380 2.109686 -0.000003 -0.000002 -0.925267 73.098201 -6.467010 -3.048335 25.458671 7.355611 -0.002605 
52.165195 -27.766312 74.873985 26.295132 -1.153255 2.429135 0.304027 0.635616 -0.540054 4.617132 1.261554 -1.085600 6.262230 1.248468 -1.100637 -12.256687 -1.864423 1.805554 -1.905670 -0.187793 2.431492 8.319997 -53.447832 10.736352 130.163666 -49.984830 113.825335 -0.000001 0.000010 -0.000008 41.077878 -13.608880 4.706131 -0.000007 -0.000006 -2.999998 -4.999601 -7.998728 -0.000039 -2.937641 47.977134 2.201541 135.048590 47.819322 -116.358379 -0.000001 -0.000004 0.000001 38.109549 13.662355 -3.172942 0.000007 -0.000004 2.999989 -4.999645 7.998806 0.000056 -69.443927 -174.883019 -2.861921 -179.999991 0.000005 -0.561000 130.491611 -2.415542 -3.043945 -0.000004 -0.000003 0.630683 70.719485 6.312265 3.603860 25.456962 -7.355616 0.000001 -68.442962 177.017070 3.859941 -0.000001 -0.000004 -0.613075 -50.789673 1.740076 2.094250 -0.000003 -0.000002 -0.927289 73.156524 -6.471940 -3.031100 25.458676 7.355610 -0.002604 
